# xmcd CD database file
#
# Track frame offsets:
#	150
#	36511
#	61041
#	80690
#	116017
#	153120
#	167875
#	191445
#	213369
#	227665
#	244172
#	263175
#	304176
#	332153
#
# Disc length: 4738 seconds
#
# Revision: 0
# Processed by: cddbd v1.5.2PL0 Copyright (c) Steve Scherf et al.
# Submitted via: CDex 1.51
#
DISCID=be12800e
DTITLE=The Tears and Drops Chicago Blues Band - digged up treasures
DYEAR=2012
DGENRE=Blues
TTITLE0=Never Make Your Move Too Soon
TTITLE1=Sweet Little Angel
TTITLE2=Every Day I Have The Blues
TTITLE3=I Wonder Why
TTITLE4=What's My Way
TTITLE5=Smile
TTITLE6=The Thrill Is Gone
TTITLE7=The Blues Got Me
TTITLE8=It Hurts Me Too
TTITLE9=Don't Treat Me Like That
TTITLE10=Dukes Blues
TTITLE11=All Your Love
TTITLE12=Stormy Monday
TTITLE13=It's Me
EXTD=YEAR: 2012
EXTT0=
EXTT1=
EXTT2=
EXTT3=
EXTT4=
EXTT5=
EXTT6=
EXTT7=
EXTT8=
EXTT9=
EXTT10=
EXTT11=
EXTT12=
EXTT13=
PLAYORDER=
